<?xml version="1.0" encoding="utf-8"?>
<!-- Generator: Adobe Illustrator 27.0.1, SVG Export Plug-In . SVG Version: 6.00 Build 0)  -->
<svg version="1.1" id="Layer_1" xmlns="http://www.w3.org/2000/svg" xmlns:xlink="http://www.w3.org/1999/xlink" x="0px" y="0px"
	 viewBox="0 0 135 135" style="enable-background:new 0 0 135 135;" xml:space="preserve">
<style type="text/css">
	.st0{fill:none;stroke:#000000;stroke-miterlimit:10;}
</style>
<g>
	<path d="M97.1,69.2c0,14.6-13.3,26.4-29.6,26.4S37.9,83.8,37.9,69.2c0-3.6,0.8-7,2.3-10.1h54.7C96.3,62.2,97.1,65.6,97.1,69.2z"/>
	<path d="M79.2,54.5c-3.1-1.5-6.3-3-8.9-5.2c-2.2-1.9-4.7-5.1-4-8.2c0.8-3.2,3.8-4.8,6.5-6.1c0.8-0.4,1.6-0.8,2.3-1.3
		c0.5-0.3,1-0.8,1.3-1.2c0.5-0.6,0.8-1.4,0.9-2.2c0.4-3.1-2.3-5.7-4.4-7.5c1.1,0.6,2.6,0.6,3.8,1.2c1.7,0.8,3.1,2.2,4.2,3.8
		c0.8,1.1,1,2.8,0.6,4c-0.3,1-1,1.8-1.8,2.5c-1.4,1.5-3.1,2.7-5.2,3.7c-0.5,0.3-1.1,0.5-1.6,0.9c-0.8,0.5-1.6,0.9-2.1,1.7
		C70,42,70.3,43.7,71,45c0.7,1.4,1.8,2.8,2.7,4c0.5,0.7,1,1.3,1.6,1.9c0.7,0.6,1.4,1.3,2.1,1.9C78.1,53.4,78.6,54.1,79.2,54.5
		L79.2,54.5z"/>
	<path d="M97.6,95.7c0,0.9-13.5,1.6-30.1,1.6s-30.1-0.7-30.1-1.6s13.5-1.6,30.1-1.6S97.6,94.8,97.6,95.7"/>
	<path d="M63.9,52.2c-2.2-1.1-4.5-2.1-6.4-3.8c-1.6-1.4-3.4-3.7-2.9-5.9c0.5-2.3,2.7-3.5,4.7-4.4c0.6-0.3,1.1-0.6,1.7-0.9
		c0.4-0.2,0.7-0.5,1-0.9s0.6-1,0.6-1.6c0.3-2.2-1.6-4.1-3.1-5.4c0.8,0.5,1.9,0.4,2.7,0.9c1.2,0.6,2.2,1.6,3,2.7
		c0.6,0.8,0.7,2,0.5,2.9c-0.2,0.7-0.7,1.3-1.3,1.8c-1.2,1.1-2.4,2-3.9,2.8c-0.4,0.2-0.8,0.4-1.2,0.6c-0.6,0.4-1.1,0.6-1.5,1.2
		c-0.6,1-0.4,2.2,0.2,3.2c0.5,1,1.3,2,2,2.9c0.4,0.5,0.7,1,1.2,1.4c0.5,0.5,1,0.9,1.5,1.4C63.1,51.5,63.4,52,63.9,52.2L63.9,52.2z"
		/>
	<path d="M89.1,86.3v-3c4.8-0.1,9.7-0.7,12.6-5.1c1.2-1.8,2-4,2.6-6.8c0.5-2.4,0.9-5.1-0.1-6.9c-0.3-0.6-0.9-1-1.7-1.2
		c-2.9-0.6-5.7,0.6-8.6,1.9L93,65.6l-1.2-2.8l0.8-0.4c3.2-1.4,6.5-2.9,10.4-2.1c1.7,0.3,3.1,1.3,3.8,2.7c1.4,2.6,1,5.8,0.3,8.9
		c-0.7,3.2-1.7,5.7-3.1,7.8C100.5,85.4,94.5,86.2,89.1,86.3L89.1,86.3z"/>
</g>
<rect y="0" class="st0" width="135" height="135"/>
</svg>
