<?xml version="1.0" encoding="utf-8"?>
<!-- Generator: Adobe Illustrator 27.0.1, SVG Export Plug-In . SVG Version: 6.00 Build 0)  -->
<svg version="1.1" id="Layer_1" xmlns="http://www.w3.org/2000/svg" xmlns:xlink="http://www.w3.org/1999/xlink" x="0px" y="0px"
	 viewBox="0 0 135 135" style="enable-background:new 0 0 135 135;" xml:space="preserve">
<style type="text/css">
	.st0{fill:none;stroke:#000000;stroke-miterlimit:10;}
</style>
<g>
	<path d="M103.9,47.6c-1-1.2-1.6-2-2-3.6c-0.8-3.1-3.2-4.9-5.4-7.1v-9.8l-5,4.4c-3.1,2.6-6.4,5.3-9.3,8.1c-3.4,3.4-3.6,9.1-3.1,13.6
		c-4-3.1-7.7-5-13-4.8c-8.9,0.4-16.8,6.2-19.9,14.5c-1.2,3.3-1.4,6.8-1,10.3c0.3,2.5,1,4.9,1.9,7.2c0.6,1.5,1.2,3,1.9,4.4
		c1.1,2.3,2.6,4.5,4.6,6c2.6,1.9,5.9,1.9,8.9,1.8c2.5-0.1,5-0.1,7.4-0.1c2.1,0,4.4,0.2,6.4-0.4c0.4-0.1,0.9-0.3,1.2-0.7
		c0.8-0.8,0.6-2.2,0-3.1c-1.5-2.6-4.1-2-6.7-2.1c-1.1-0.1-3,0.1-3.9-0.6c-1.8-1.4,7.2-4.5,8-4.8c0.8-0.2,1.6-0.5,2.4-0.2
		c0.9,0.4,1.3,1.4,1.6,2.3c1.2,3.2,2.8,6.2,4.5,9.1c0.1,0.1,0.2,0.3,0.3,0.4c0.1,0.1,0.3,0.1,0.4,0.1c0.8,0,1.6,0,2.5,0.1
		c0.6,0,1.3,0,1.9-0.3c1.8-0.9,0.4-2.7-0.6-3.5c-0.7-0.5-1.2-2.4-1.3-3.1c-0.5-2-0.5-4.1-0.5-6.1c0-0.3,0-0.7,0.1-1
		c0.6-1.2,2.1-2.2,2.9-3.2c1-1.2,2-2.6,2.8-3.9c0.4-0.6,0.7-1.2,1-1.9c0.9-2.1,1.2-4.4,1.3-6.6c0.2-2.1,0.2-4.1,1-6.1
		c3.6,0.4,8.6-2.3,9.3-6.1l0.4-2.8L103.9,47.6z M98.8,46.4c-0.5,0.6-1.6,0.5-2.4-0.2s-1.1-1.7-0.6-2.3s1.6-0.5,2.4,0.2
		C99.1,44.8,99.3,45.9,98.8,46.4z"/>
	<path d="M51,81.6c-0.1,0-0.2,0-0.3,0c-3.4-0.4-6.7-2.1-9-4.7c-5.5-6.1-5-16-1.6-22.5c0.4-0.8,0.9-1.6,1.3-2.4
		c0.9-1.7,1.8-3.2,2.4-4.9c0.9-2.4,1.1-5.8-0.9-8.1c-1.5-1.7-4-2.1-6.1-0.8c-1.7,0.9-2.3,2.4-2.3,5.5c0,1.4-1.1,2.5-2.5,2.5
		c-1.4,0-2.5-1.1-2.5-2.5c0-3,0.5-7.4,4.8-9.8c4.2-2.4,9.3-1.6,12.3,1.9c2.9,3.3,3.6,8.3,1.8,13.1c-0.7,2-1.8,3.8-2.8,5.6
		c-0.4,0.8-0.9,1.5-1.2,2.3c-2.5,4.9-3.1,12.5,0.8,16.9c1.5,1.7,3.6,2.8,5.9,3c1.4,0.2,2.4,1.4,2.2,2.8C53.3,80.6,52.2,81.6,51,81.6
		L51,81.6z"/>
</g>
<rect class="st0" width="135" height="135"/>
</svg>
