<?xml version="1.0" encoding="utf-8"?>
<!-- Generator: Adobe Illustrator 27.0.1, SVG Export Plug-In . SVG Version: 6.00 Build 0)  -->
<svg version="1.1" id="Layer_1" xmlns="http://www.w3.org/2000/svg" xmlns:xlink="http://www.w3.org/1999/xlink" x="0px" y="0px"
	 viewBox="0 0 171 168.4" style="enable-background:new 0 0 171 168.4;" xml:space="preserve">
<style type="text/css">
	.st0{fill:#EF3B39;}
</style>
<g id="SvgjsG3678" transform="matrix(1.5359099624210089,0,0,1.5359099624210089,98.18322846782894,-8.98693923523066)">
	<g>
		<g>
			<g>
				<g>
					<path class="st0" d="M-6.2,100.6c-0.5-0.6-0.9-0.2-0.9-0.6c-2.7,0.7-7.8-1.1-10-0.9c0.5-0.7-0.7-0.6-0.7-1
						c-0.5,0.7-0.9,0-1.6,0.2c-0.7-1.7-3.4-0.5-3.7-2.6c-1.6,0-2.1-0.9-3.7-1.8c0.1-0.1,0.2-0.1,0.3-0.2c-0.8-0.1-0.8-0.6-1.5-0.6
						l0.2-0.5c-1.2-0.2-1.7-2.1-3.5-2.8c-0.6-0.1-1.8-2-2.5-2.5c-0.3-0.2-0.9-0.2-0.1-0.3c-0.1-0.1-0.1-0.3,0-0.5
						c-0.8-0.2-0.9-0.9-1.9-1.2c-0.1-0.3,0.2-0.6,0-0.8c-0.2-0.1-0.6,0.1-0.8,0c-0.1,2,2.1,2.3,2.8,4c-0.2-0.2-0.6-0.9-0.8-0.5
						c-0.1,0.3,0.9,1.6,0.9,0.9c-0.3,0.2-0.5-0.3-0.2-0.5c0.3,0.6,1,0.5,1,0.9c-0.3,0.3-0.8-0.3-0.7,0.2c1,0.6,0.9,1.1,1.5,1.9
						c-0.5-0.6-0.6,0.5-1,0c-0.1-1.7-2-1.4-2-3.1c-0.2-0.6-0.5-0.1-0.8-0.3c0.5-0.5-1.4-2-1.4-1.5c-0.6-0.7-0.2-0.9-0.3-1.4
						c-0.5-0.1-0.1,0.5-0.5,0.1c0.5-0.8-0.6-1.8-1.2-2.6l0.5-0.2c-0.8-0.5-0.9-1.4-1.5-2.4c-0.7,1,1.4,3.3,1,3.7c0,0.1,0.8,1,1,1.5
						c0.9,1.6,1.6,3.5,2.8,4.4c-0.2-0.1-0.1-0.8,0.2-0.5c0,0.3-0.2,0.7-0.2,1c0.7,0.7,1.2,1.2,1.9,1.9c-1.5-0.9-2.9-1.8-4-3.2
						c0.6-0.1,1.1,0.9,1.6,0.8c-1.1-0.9-0.8-1.2-1.2-2.4c-0.5-0.3,0.1,0.5-0.3,0.6c-1.5-1.4-2.6-2.1-3.3-3.4
						c0.1-0.1,0.2-0.2,0.2-0.5c-0.1-0.1-0.1-0.1-0.2-0.2c0.7,0.7,0.9,1.2,1.7,1.4c-0.3-0.3,0-0.5-0.5-0.8c-0.2-0.5-0.6,0.2-0.8-0.1
						c0.2-0.3,0-0.8,0-1.1c-0.2,0-0.5,0-0.6-0.3c-0.2-0.1-0.3,0-0.5,0.2c-0.1-0.1-0.1-0.3-0.2-0.5v-0.1c-0.1-0.1-0.2-0.3-0.3-0.5
						c-0.9-2.4-1.5-5.5-2.7-7.6c0.3-1.4-0.2-4.1-0.6-4.8c0.3-0.6,0.1-3.2-0.1-3.6c-0.6,0.2,0.1,1.5-0.5,1.8
						c-0.6-2.5,0.3-5.3,0.1-7.6c0.2,0,0.5,0,0.5-0.1c-0.3-0.3,0.2-1,0.1-1.8c0.5-1-1,1.5-1,2.5c-0.1,0.2-0.6,0-0.5,0.6
						c0,0.8,0.2,2.4-0.2,3.5c-0.2,0-0.2-0.2-0.5-0.1c-0.1,0.6-0.2,1.2-0.3,1.8c-0.1-0.2-0.2-0.6-0.2-0.7c-0.6-2.8,0-6.1-0.2-8.5
						c0.5,0,0.5-0.7,0.8-0.9c-0.1,0.9-0.3,2,0.2,2.3c0.5-4.4,1.4-9.3,3.4-14c1.5-3.5,3.6-7,6.2-9.8c0.2,0.3-0.1,1.1,0,1.5
						c2.3-2.4,3.7-5.2,6.2-6.8c0.1,0.6-1,1-1,1.5c1-1,1.4-0.7,2.5-1c0.3-0.5-0.5,0-0.6-0.5c0.7-0.5,1.1-1,1.6-1.4
						c0,0.1-0.1,0.1-0.1,0.2c1.2-0.3,1.4-1,2.3-1.2c-0.1-0.1-0.3-0.2-0.7-0.1c0.2-0.1,0.6-0.3,0.9-0.5c-0.1,0-0.1,0.1-0.2,0.1
						c0.7-0.3,0.1,0.1,0.1,0.3c0.1,0,0.2-0.1,0.2-0.1c-0.7,0.5-1.1,0.7-1.4,1.5c0.3-0.2,0.5,0,0.9-0.3c0.5-0.2-0.1-0.6,0.2-0.8
						c0.3,0.2,0.8,0.1,1.1,0.1c0-0.2,0.1-0.5,0.3-0.6c0.1-0.2,0-0.3-0.1-0.3c0.1-0.1,0.2-0.1,0.5-0.2c0,0,0.1,0,0.1,0.1
						c1.9-0.9,4.1-1.7,6.1-2.4c1.2-0.1,2.8-0.1,3.5-0.9c-0.2,0-0.5,0.1-0.6,0c0.1,0,0.3-0.1,0.5-0.1c0.2,0.2,0.6,0,0.2,0.5
						c0.1,0,0.1,0,0.2-0.1c0,0.1,0,0.1,0.1,0.2c0.1,0,0.2-0.1,0.3-0.3c0.1,0,0.2,0,0.3-0.1l-0.1,0.1c0.9-0.2,1.7-0.1,2.9-0.3
						c0-0.1,0-0.2,0-0.3c0.2,0,0.3-0.1,0.6-0.1v0.1c0.5-0.2,0.9,0.2,0.9,0c0.1,0,0.1,0,0.2,0c0,0.2-0.1,0.3-0.1,0.5
						c0.6,0,0.9,0,1.1-0.3c-0.1-0.1-0.2-0.1-0.3-0.1c0.2,0,0.5-0.1,0.7-0.2c0.3,0.1,0.5,0.2,0.5,0.7c0.6-1,2.4,0.2,3.2,0
						c0.3,0,0.2-0.5,0.5-0.7c0.1,0,0.2,0,0.3,0c0.6,0.5,1.4,0.9,2.4,1c-0.9-0.2,0.1-0.3,0.2-0.5c-0.2,0-0.2-0.1-0.2-0.2
						c0.3,0,0.7,0.1,1,0.1c0,0.2,0.1,0.3,0.3,0.3c0.2,0,0.2-0.1,0.2-0.3c0.3,0,0.6,0,0.9,0.1C1,23.6,1.7,23.7,1.9,24
						C1,23.8,0,23.4-0.4,24c3.6,0.8,7.6,1.9,11.4,3.8c0,0,0,0,0,0.1h0.1c0.7,0.3,1.4,0.7,2,1c0.5,0.2,0.8,0.5,1.2,0.8
						c0,0.1,0,0.2,0.2,0.2h0.1c0.5,0.3,0.9,0.6,1.4,0.9c0.5,0.7,0.9,1.6,1.7,1.4c1.7,2.6,3.5,3.6,5,6.3c0.1-0.5,0.5,1,1,1.1
						c-0.9-0.1,0.6,0.6-0.3,0.5c0.8,0.8,1,1.1,1.1,2c-0.2-0.5-0.3-0.6-0.5-0.1c-0.1,0.7,0.8-0.1,1.1,0.6c-0.7,0-0.5,0.5-0.3,1
						c0.3-0.3,0.2-0.7,0.6-0.6c0.5,0.5-0.2,0.6-0.1,0.9c0.3-0.5,0.5-0.2,0.9,0c-0.6,0.1,0.3,0.9-0.3,0.6c0.5,0.6,0.6,0.9,0.3,1.5
						c-0.5-0.7-0.1-1.1-0.8-1c1.4,1.1,0.7,3.7,2.3,4c-1,0.2,0,0.7-0.6,0.8c0.7,0.2,0.3,1.1,1.1,1.4c-0.1,0.6-0.3,0.9-0.5,1.5
						c0.3,0.5,0.5,1.4,1,1.5c-0.3,0.3-0.1,1.2-0.5,1.6c0.5-0.2,0.7-0.2,1,0.2c-0.6,0.5-0.1,0.9-0.5,1c1,2.6-0.2,7.9,0.3,10
						c-0.7-0.3-0.5,0.8-0.9,0.8c0.8,0.3,0.1,0.9,0.5,1.5c-1.6,0.9,0,3.4-2.1,4c0.2,1.6-0.7,2.3-1.4,4C25,77.2,25,77.1,24.9,77
						c-0.1,0.8-0.6,0.9-0.3,1.6l-0.5-0.2c0,1.2-1.9,1.9-2.4,3.8c-0.1,0.6-1.8,2-2.3,2.8c-0.2,0.3-0.1,0.9-0.3,0.1
						c-0.1,0.1-0.3,0.1-0.5,0.1c-0.1,0.8-0.8,1-1,2c-0.2,0.1-0.6-0.2-0.8,0.1c0,0.2,0.2,0.6,0.1,0.8c2-0.1,2-2.5,3.6-3.3
						c-0.1,0.3-0.8,0.7-0.3,0.9c0.3,0,1.4-1.1,0.8-1c0.3,0.2-0.3,0.5-0.5,0.3c0.6-0.5,0.3-1,0.8-1.1c0.3,0.2-0.3,0.8,0.3,0.7
						c0.5-1,1-1.1,1.7-1.7c-0.5,0.5,0.6,0.6,0.1,1c-1.7,0.3-1.1,2.3-2.8,2.5c-0.5,0.3-0.1,0.5-0.2,0.8c-0.6-0.3-1.8,1.6-1.4,1.5
						c-0.6,0.6-0.9,0.3-1.4,0.5c-0.1,0.5,0.5,0.1,0.2,0.5c-0.8-0.3-1.8,0.8-2.5,1.6L15,91c-0.3,0.9-1.2,1-2.3,1.7
						c1.1,0.6,3.1-1.8,3.6-1.5c0.1,0,1-0.9,1.4-1.2c1.5-1.1,3.3-2,4-3.3c-0.1,0.2-0.8,0.2-0.5-0.1c0.3-0.1,0.7,0.1,1,0.1
						c1.8-2.5,4.1-4.5,5.8-7.5c0.1-0.1,0.2-0.3,0.3-0.6c-0.2,0.7-0.6,1.2-0.8,1.9c-1.8,1.2-2.5,4.9-4.6,5.4c0.1,1.2-1,1.6-1.6,3.1
						c-0.3,0.5-0.6-0.3-0.9,0.2c0.3,1.6-2.8,1.5-2.7,2.9c-0.2,0.1-0.6,0.2-0.8,0.5h-0.1c-0.1,0.1-0.1,0.1-0.2,0.2
						c-0.6,0.3-1,0.7-1.5,1c-1.6,0.9-3.7,1.6-5.4,2.5v-0.1c-0.5,0.2-1,0.1-0.9,0.6c-0.3,0.2-0.7,0.5-1,0.7c-0.1,0-0.1,0-0.2,0
						c0,0-0.1-0.1-0.2-0.1c-0.2,0-0.2,0-0.3,0.1c-1.5,0.1-3.4,0.8-4,1.2c-0.6-0.3-3.2,0.2-3.6,0.5c0.2,0.3,0.9,0,1.5,0
						c-0.3,0.1-0.7,0.2-0.8,0.5c-0.1,0-0.1,0-0.2,0c-0.1-0.3-0.5,0-0.6-0.1h0.1c-0.1-0.5-0.5-0.7-1-0.6c0,0.2,0,0.3-0.1,0.6
						c0.2,0,0.9-0.3,0.9,0c-0.1,0-0.1,0.1,0,0.1c-0.2,0.2-0.6,0.2-0.8,0.3c-0.5,0-1,0-1.5,0c-0.1-0.1-0.2-0.1-0.5-0.2
						c-0.1,0.1-0.3,0.1-0.5,0.2c-0.7,0-1.5,0.1-2,0.2c0-0.2,0-0.5-0.2-0.5c-0.3,0.5-1-0.1-1.8,0.1c-0.8-0.2,0.5,0.3,1.6,0.6
						C-5.8,100.4-5.9,100.5-6.2,100.6 M-22.1,102.2c-1.6-1.5-4.9-2.1-5.4-3.3c-0.9-0.1-2.3-1.8-3.4-2c0.6,0,0.1-0.3,0-0.6
						c-0.2,0.2-0.5,0.3-0.7,0.3c0-0.9-0.9-1.5-1.7-2c0.6,0.3,1,0.6,1.7,0.7c0-0.2,0-0.5,0.2-0.5c0.8,0.8,1.7,1.6,2.7,2.4
						c1.4,1.2,8.4,4.4,9.6,5c0,0-0.2,0.5-0.1,0.5c0.6,0.3,1-0.3,1.1,0.5C-19.8,103.3-20.5,102.1-22.1,102.2 M30.1,75.9L30.1,75.9
						L30.1,75.9C30,76.1,30.1,75.9,30.1,75.9 M-15.6,23.6c-0.1,0.1-0.2,0.1-0.2,0.1C-15.9,23.6-15.8,23.6-15.6,23.6 M-17.8,24.1
						C-17.8,24.2-17.8,24.2-17.8,24.1C-17.8,24.2-17.8,24.2-17.8,24.1C-17.8,24.2-17.8,24.1-17.8,24.1 M-25.3,26.5L-25.3,26.5
						c0.1-0.1,0.1-0.1,0.2-0.1L-25.3,26.5 M-7.2,22.8c-0.2,0-0.3,0-0.5-0.1c0.1,0,0.2,0,0.3,0h0.1C-7.2,22.7-7.2,22.7-7.2,22.8
						 M-5.1,23c-0.1-0.1-0.5-0.2-0.8-0.2c0-0.1,0.1-0.2,0.1-0.2c0.1,0,0.2,0,0.3,0c0,0,0.1,0,0.1,0.1c0,0,0,0,0-0.1
						c0.1,0,0.1,0,0.2,0C-5,22.8-4.9,22.9-5.1,23 M-1.4,23.3c-0.5,0.1-0.9-0.1-1.5-0.4c0.3,0,0.8,0.1,1.1,0.2
						C-1.6,23.1-1.5,23.2-1.4,23.3 M38.9,39.4c-0.2,0.1-0.3,0.1-0.6-0.3c-1.8-3.8-5.1-9.4-9.8-14c-4.7-4.8-10.9-8.7-16.5-10.7
						c0.3,0.1,0.8,0.3,0.6,0.6c-5-1.9-9.7-3.1-14.3-3.5c-12.2-1.9-25,0.7-34.8,7c0.1,0.2,0.1,0.3-0.2,0.6
						c-3.6,2.3-8.7,6.2-12.8,11.4s-7.2,11.8-8.6,17.7c0.1-0.3,0.2-0.9,0.5-0.7c-2.9,11.7-2.1,21.6,1.9,30.2c0.2-0.2-0.6-1.4,0.1-1.2
						c0.5,1.2,1,2.6,1.7,3.8c0.8,1.8,1.7,4.2,2.9,4.8c-3.2-6.2-5.3-13.4-5.5-19.7c0.5,0.9,0.3,2.8,1,3.6c0.2-4.3-0.8-10.1,0.7-14.1
						c-0.3,2.1-0.6,5.1-0.3,8c0,2.1,1,8.1,1.7,8.7c-0.1-0.1-0.1-0.7,0-0.7c0.3,0.7-0.5,1,0.1,1.1c0-0.2,0.1-0.2,0.2-0.2
						c1.1,2.5,2.6,6.3,3.7,8.3c1.4,2.5,3.2,4.8,5.2,6.8c0,0.1,0.1,0.1,0.1,0.2c0.2,0.6,1,1.2,1.2,1.7c0.1,0.2-0.1,0.6,0,0.8
						c1.7,3.2,4.2,6.3,7.2,8.8c1.9,2.3,5,4.6,8.7,6.7c3.6,1.9,7.8,3.5,11.7,4.4c2.7,0.7,6,0.8,8,1.2c2.7,0.6,7.5-0.2,9.8-0.7
						c14.3-2.1,28.4-11.9,35.5-25.9C45.5,69.9,45.2,52.6,38.9,39.4"/>
				</g>
			</g>
		</g>
	</g>
</g>
</svg>
