<?xml version="1.0" encoding="utf-8"?>
<!-- Generator: Adobe Illustrator 27.0.1, SVG Export Plug-In . SVG Version: 6.00 Build 0)  -->
<svg version="1.1" id="Layer_1" xmlns="http://www.w3.org/2000/svg" xmlns:xlink="http://www.w3.org/1999/xlink" x="0px" y="0px"
	 viewBox="0 0 446 229.9" style="enable-background:new 0 0 446 229.9;" xml:space="preserve">
<style type="text/css">
	.st0{fill:#EF3B39;}
</style>
<g id="SvgjsG3678" transform="matrix(1.5359099624210089,0,0,1.5359099624210089,98.18322846782894,-8.98693923523066)">
	<g>
		<g>
			<g>
				<g>
					<path class="st0" d="M82.3,102.2c-0.5-0.6-0.9-0.2-0.9-0.6c-2.7,0.7-7.8-1.1-10-0.9c0.5-0.7-0.7-0.6-0.7-1
						c-0.5,0.7-0.9,0-1.6,0.2c-0.7-1.7-3.4-0.5-3.7-2.6c-1.6,0-2.1-0.9-3.7-1.8c0.1-0.1,0.2-0.1,0.3-0.2c-0.8-0.1-0.8-0.6-1.5-0.6
						l0.2-0.5c-1.2-0.2-1.7-2.1-3.5-2.8c-0.6-0.1-1.8-2-2.5-2.5c-0.3-0.2-0.9-0.2-0.1-0.3c-0.1-0.1-0.1-0.3,0-0.5
						c-0.8-0.2-0.9-0.9-1.9-1.2c-0.1-0.3,0.2-0.6,0-0.8c-0.2-0.1-0.6,0.1-0.8,0c-0.1,2,2.1,2.3,2.8,4c-0.2-0.2-0.6-0.9-0.8-0.5
						c-0.1,0.3,0.9,1.6,0.9,0.9c-0.3,0.2-0.5-0.3-0.2-0.5c0.3,0.6,1,0.5,1,0.9c-0.3,0.3-0.8-0.3-0.7,0.2c1,0.6,0.9,1.1,1.5,1.9
						c-0.5-0.6-0.6,0.5-1,0c-0.1-1.7-2-1.4-2-3.1c-0.2-0.6-0.5-0.1-0.8-0.3c0.5-0.5-1.4-2-1.4-1.5c-0.6-0.7-0.2-0.9-0.3-1.4
						c-0.5-0.1-0.1,0.5-0.5,0.1c0.5-0.8-0.6-1.8-1.2-2.6l0.5-0.2c-0.8-0.5-0.9-1.4-1.5-2.4c-0.7,1,1.4,3.3,1,3.7c0,0.1,0.8,1,1,1.5
						c0.9,1.6,1.6,3.5,2.8,4.4c-0.2-0.1-0.1-0.8,0.2-0.5c0,0.3-0.2,0.7-0.2,1c0.7,0.7,1.2,1.2,1.9,1.9c-1.5-0.9-2.9-1.8-4-3.2
						c0.6-0.1,1.1,0.9,1.6,0.8c-1.1-0.9-0.8-1.2-1.2-2.4c-0.5-0.3,0.1,0.5-0.3,0.6c-1.5-1.4-2.6-2.1-3.3-3.4
						c0.1-0.1,0.2-0.2,0.2-0.5c-0.1-0.1-0.1-0.1-0.2-0.2c0.7,0.7,0.9,1.2,1.7,1.4c-0.3-0.3,0-0.5-0.5-0.8c-0.2-0.5-0.6,0.2-0.8-0.1
						c0.2-0.3,0-0.8,0-1.1c-0.2,0-0.5,0-0.6-0.3c-0.2-0.1-0.3,0-0.5,0.2c-0.1-0.1-0.1-0.3-0.2-0.5V84c-0.1-0.1-0.2-0.3-0.3-0.5
						c-0.9-2.4-1.5-5.5-2.7-7.6c0.3-1.4-0.2-4.1-0.6-4.8c0.3-0.6,0.1-3.2-0.1-3.6c-0.6,0.2,0.1,1.5-0.5,1.8
						c-0.6-2.5,0.3-5.3,0.1-7.6c0.2,0,0.5,0,0.5-0.1c-0.3-0.3,0.2-1,0.1-1.8c0.5-1-1,1.5-1,2.5c-0.1,0.2-0.6,0-0.5,0.6
						c0,0.8,0.2,2.4-0.2,3.5c-0.2,0-0.2-0.2-0.5-0.1c-0.1,0.6-0.2,1.2-0.3,1.8c-0.1-0.2-0.2-0.6-0.2-0.7c-0.6-2.8,0-6.1-0.2-8.5
						c0.5,0,0.5-0.7,0.8-0.9c-0.1,0.9-0.3,2,0.2,2.3c0.5-4.4,1.4-9.3,3.4-14c1.5-3.5,3.6-7,6.2-9.8c0.2,0.3-0.1,1.1,0,1.5
						c2.3-2.4,3.7-5.2,6.2-6.8c0.1,0.6-1,1-1,1.5c1-1,1.4-0.7,2.5-1c0.3-0.5-0.5,0-0.6-0.5c0.7-0.5,1.1-1,1.6-1.4
						c0,0.1-0.1,0.1-0.1,0.2c1.2-0.3,1.4-1,2.3-1.2c-0.1-0.1-0.3-0.2-0.7-0.1c0.2-0.1,0.6-0.3,0.9-0.5c-0.1,0-0.1,0.1-0.2,0.1
						c0.7-0.3,0.1,0.1,0.1,0.3c0.1,0,0.2-0.1,0.2-0.1c-0.7,0.5-1.1,0.7-1.4,1.5c0.3-0.2,0.5,0,0.9-0.3c0.5-0.2-0.1-0.6,0.2-0.8
						c0.3,0.2,0.8,0.1,1.1,0.1c0-0.2,0.1-0.5,0.3-0.6c0.1-0.2,0-0.3-0.1-0.3c0.1-0.1,0.2-0.1,0.5-0.2c0,0,0.1,0,0.1,0.1
						c1.9-0.9,4.1-1.7,6.1-2.4c1.2-0.1,2.8-0.1,3.5-0.9c-0.2,0-0.5,0.1-0.6,0c0.1,0,0.3-0.1,0.5-0.1c0.2,0.2,0.6,0,0.2,0.5
						c0.1,0,0.1,0,0.2-0.1c0,0.1,0,0.1,0.1,0.2c0.1,0,0.2-0.1,0.3-0.3c0.1,0,0.2,0,0.3-0.1l-0.1,0.1c0.9-0.2,1.7-0.1,2.9-0.3
						c0-0.1,0-0.2,0-0.3c0.2,0,0.3-0.1,0.6-0.1v0.1c0.5-0.2,0.9,0.2,0.9,0c0.1,0,0.1,0,0.2,0c0,0.2-0.1,0.3-0.1,0.5
						c0.6,0,0.9,0,1.1-0.3c-0.1-0.1-0.2-0.1-0.3-0.1c0.2,0,0.5-0.1,0.7-0.2c0.3,0.1,0.5,0.2,0.5,0.7c0.6-1,2.4,0.2,3.2,0
						c0.3,0,0.2-0.5,0.5-0.7c0.1,0,0.2,0,0.3,0c0.6,0.5,1.4,0.9,2.4,1c-0.9-0.2,0.1-0.3,0.2-0.5c-0.2,0-0.2-0.1-0.2-0.2
						c0.3,0,0.7,0.1,1,0.1c0,0.2,0.1,0.3,0.3,0.3c0.2,0,0.2-0.1,0.2-0.3c0.3,0,0.6,0,0.9,0.1c-0.1,0.5,0.6,0.6,0.8,0.9
						c-0.9-0.2-1.9-0.6-2.3,0c3.6,0.8,7.6,1.9,11.4,3.8c0,0,0,0,0,0.1h0.1c0.7,0.3,1.4,0.7,2,1c0.5,0.2,0.8,0.5,1.2,0.8
						c0,0.1,0,0.2,0.2,0.2h0.1c0.5,0.3,0.9,0.6,1.4,0.9c0.5,0.7,0.9,1.6,1.7,1.4c1.7,2.6,3.5,3.6,5,6.3c0.1-0.5,0.5,1,1,1.1
						c-0.9-0.1,0.6,0.6-0.3,0.5c0.8,0.8,1,1.1,1.1,2c-0.2-0.5-0.3-0.6-0.5-0.1c-0.1,0.7,0.8-0.1,1.1,0.6c-0.7,0-0.5,0.5-0.3,1
						c0.3-0.3,0.2-0.7,0.6-0.6c0.5,0.5-0.2,0.6-0.1,0.9c0.3-0.5,0.5-0.2,0.9,0c-0.6,0.1,0.3,0.9-0.3,0.6c0.5,0.6,0.6,0.9,0.3,1.5
						c-0.5-0.7-0.1-1.1-0.8-1c1.4,1.1,0.7,3.7,2.3,4c-1,0.2,0,0.7-0.6,0.8c0.7,0.2,0.3,1.1,1.1,1.4c-0.1,0.6-0.3,0.9-0.5,1.5
						c0.3,0.5,0.5,1.4,1,1.5c-0.3,0.3-0.1,1.2-0.5,1.6c0.5-0.2,0.7-0.2,1,0.2c-0.6,0.5-0.1,0.9-0.5,1c1,2.6-0.2,7.9,0.3,10
						c-0.7-0.3-0.5,0.8-0.9,0.8c0.8,0.3,0.1,0.9,0.5,1.5c-1.6,0.9,0,3.4-2.1,4c0.2,1.6-0.7,2.3-1.4,4c-0.1-0.1-0.1-0.2-0.2-0.3
						c-0.1,0.8-0.6,0.9-0.3,1.6l-0.5-0.2c0,1.2-1.9,1.9-2.4,3.8c-0.1,0.6-1.8,2-2.3,2.8c-0.2,0.3-0.1,0.9-0.3,0.1
						c-0.1,0.1-0.3,0.1-0.5,0.1c-0.1,0.8-0.8,1-1,2c-0.2,0.1-0.6-0.2-0.8,0.1c0,0.2,0.2,0.6,0.1,0.8c2-0.1,2-2.5,3.6-3.3
						c-0.1,0.3-0.8,0.7-0.3,0.9c0.3,0,1.4-1.1,0.8-1c0.3,0.2-0.3,0.5-0.5,0.3c0.6-0.5,0.3-1,0.8-1.1c0.3,0.2-0.3,0.8,0.3,0.7
						c0.5-1,1-1.1,1.7-1.7c-0.5,0.5,0.6,0.6,0.1,1c-1.7,0.3-1.1,2.3-2.8,2.5c-0.5,0.3-0.1,0.5-0.2,0.8c-0.6-0.3-1.8,1.6-1.4,1.5
						c-0.6,0.6-0.9,0.3-1.4,0.5c-0.1,0.5,0.5,0.1,0.2,0.5c-0.8-0.3-1.8,0.8-2.5,1.6l-0.3-0.3c-0.3,0.9-1.2,1-2.3,1.7
						c1.1,0.6,3.1-1.8,3.6-1.5c0.1,0,1-0.9,1.4-1.2c1.5-1.1,3.3-2,4-3.3c-0.1,0.2-0.8,0.2-0.5-0.1c0.3-0.1,0.7,0.1,1,0.1
						c1.8-2.5,4.1-4.5,5.8-7.5c0.1-0.1,0.2-0.3,0.3-0.6c-0.2,0.7-0.6,1.2-0.8,1.9c-1.8,1.2-2.5,4.9-4.6,5.4c0.1,1.2-1,1.6-1.6,3.1
						c-0.3,0.5-0.6-0.3-0.9,0.2c0.3,1.6-2.8,1.5-2.7,2.9c-0.2,0.1-0.6,0.2-0.8,0.5h-0.1c-0.1,0.1-0.1,0.1-0.2,0.2
						c-0.6,0.3-1,0.7-1.5,1c-1.6,0.9-3.7,1.6-5.4,2.5v-0.1c-0.5,0.2-1,0.1-0.9,0.6c-0.3,0.2-0.7,0.5-1,0.7c-0.1,0-0.1,0-0.2,0
						c0,0-0.1-0.1-0.2-0.1c-0.2,0-0.2,0-0.3,0.1c-1.5,0.1-3.4,0.8-4,1.2c-0.6-0.3-3.2,0.2-3.6,0.5c0.2,0.3,0.9,0,1.5,0
						c-0.3,0.1-0.7,0.2-0.8,0.5c-0.1,0-0.1,0-0.2,0c-0.1-0.3-0.5,0-0.6-0.1H88c-0.1-0.5-0.5-0.7-1-0.6c0,0.2,0,0.3-0.1,0.6
						c0.2,0,0.9-0.3,0.9,0c-0.1,0-0.1,0.1,0,0.1c-0.2,0.2-0.6,0.2-0.8,0.3c-0.5,0-1,0-1.5,0c-0.1-0.1-0.2-0.1-0.5-0.2
						c-0.1,0.1-0.3,0.1-0.5,0.2c-0.7,0-1.5,0.1-2,0.2c0-0.2,0-0.5-0.2-0.5c-0.3,0.5-1-0.1-1.8,0.1c-0.8-0.2,0.5,0.3,1.6,0.6
						C82.7,102,82.6,102.1,82.3,102.2 M66.4,103.8c-1.6-1.5-4.9-2.1-5.4-3.3c-0.9-0.1-2.3-1.8-3.4-2c0.6,0,0.1-0.3,0-0.6
						c-0.2,0.2-0.5,0.3-0.7,0.3c0-0.9-0.9-1.5-1.7-2c0.6,0.3,1,0.6,1.7,0.7c0-0.2,0-0.5,0.2-0.5c0.8,0.8,1.7,1.6,2.7,2.4
						c1.4,1.2,8.4,4.4,9.6,5c0,0-0.2,0.5-0.1,0.5c0.6,0.3,1-0.3,1.1,0.5C68.7,104.9,68,103.7,66.4,103.8 M118.6,77.5L118.6,77.5
						L118.6,77.5C118.5,77.7,118.6,77.5,118.6,77.5 M72.9,25.2c-0.1,0.1-0.2,0.1-0.2,0.1C72.6,25.2,72.7,25.2,72.9,25.2 M70.7,25.7
						C70.7,25.8,70.7,25.8,70.7,25.7C70.7,25.8,70.7,25.8,70.7,25.7C70.7,25.8,70.7,25.7,70.7,25.7 M63.2,28.1L63.2,28.1
						c0.1-0.1,0.1-0.1,0.2-0.1L63.2,28.1 M81.3,24.4c-0.2,0-0.3,0-0.5-0.1c0.1,0,0.2,0,0.3,0h0.1C81.3,24.3,81.3,24.3,81.3,24.4
						 M83.4,24.6c-0.1-0.1-0.5-0.2-0.8-0.2c0-0.1,0.1-0.2,0.1-0.2c0.1,0,0.2,0,0.3,0c0,0,0.1,0,0.1,0.1c0,0,0,0,0-0.1
						c0.1,0,0.1,0,0.2,0C83.5,24.4,83.6,24.5,83.4,24.6 M87.1,24.9c-0.5,0.1-0.9-0.1-1.5-0.4c0.3,0,0.8,0.1,1.1,0.2
						C86.9,24.7,87,24.8,87.1,24.9 M127.4,41c-0.2,0.1-0.3,0.1-0.6-0.3c-1.8-3.8-5.1-9.4-9.8-14c-4.7-4.8-10.9-8.7-16.5-10.7
						c0.3,0.1,0.8,0.3,0.6,0.6c-5-1.9-9.7-3.1-14.3-3.5c-12.2-1.9-25,0.7-34.8,7c0.1,0.2,0.1,0.3-0.2,0.6C48.2,23,43.1,26.9,39,32.1
						s-7.2,11.8-8.6,17.7c0.1-0.3,0.2-0.9,0.5-0.7c-2.9,11.7-2.1,21.6,1.9,30.2c0.2-0.2-0.6-1.4,0.1-1.2c0.5,1.2,1,2.6,1.7,3.8
						c0.8,1.8,1.7,4.2,2.9,4.8C34.3,80.5,32.2,73.3,32,67c0.5,0.9,0.3,2.8,1,3.6c0.2-4.3-0.8-10.1,0.7-14.1c-0.3,2.1-0.6,5.1-0.3,8
						c0,2.1,1,8.1,1.7,8.7c-0.1-0.1-0.1-0.7,0-0.7c0.3,0.7-0.5,1,0.1,1.1c0-0.2,0.1-0.2,0.2-0.2c1.1,2.5,2.6,6.3,3.7,8.3
						c1.4,2.5,3.2,4.8,5.2,6.8c0,0.1,0.1,0.1,0.1,0.2c0.2,0.6,1,1.2,1.2,1.7c0.1,0.2-0.1,0.6,0,0.8c1.7,3.2,4.2,6.3,7.2,8.8
						c1.9,2.3,5,4.6,8.7,6.7c3.6,1.9,7.8,3.5,11.7,4.4c2.7,0.7,6,0.8,8,1.2c2.7,0.6,7.5-0.2,9.8-0.7c14.3-2.1,28.4-11.9,35.5-25.9
						C134,71.5,133.7,54.2,127.4,41"/>
				</g>
			</g>
		</g>
	</g>
</g>
<path d="M62.4,221.1H52.3l-3.2-36.7l-12.4,36.7h-6.5l-12.4-36.7l-3.2,36.7H4.5l4.1-48.7h14.5L33.5,203l10.4-30.6h14.4L62.4,221.1z
	 M101.1,181.3h-18v11.1h16v8.8h-16v11h18v8.9H72.9v-48.7h28.2V181.3L101.1,181.3z M167.3,221.1h-10.1l-3.2-36.7l-12.4,36.7h-6.5
	l-12.4-36.7l-3.2,36.7h-10.1l4.1-48.7h14.4l10.4,30.6l10.5-30.6h14.4L167.3,221.1z M199.5,221.8c-14.3,0-24.9-9.8-24.9-25
	c0-15.3,10.5-25,24.9-25c14.3,0,24.8,9.7,24.8,25C224.3,212,213.7,221.8,199.5,221.8z M199.5,212.5c8.4,0,14.8-5.9,14.8-15.8
	c0-9.9-6.4-15.7-14.8-15.7s-14.8,5.8-14.8,15.7C184.6,206.7,191,212.5,199.5,212.5z M259.3,221.1l-12.6-21.4h-3v21.4h-10.1v-48.7
	h17.6c11,0,15.7,6.5,15.7,14.5c0,6.5-3.7,10.8-10.3,12.2l14.6,22L259.3,221.1L259.3,221.1z M243.7,180.8v11.6h5.9
	c5.4,0,7.6-2.3,7.6-5.8s-2.2-5.8-7.6-5.8L243.7,180.8L243.7,180.8z M278.7,221.1v-48.7h10.1v48.7H278.7z M322.9,221.8
	c-14.3,0-24.9-9.8-24.9-25c0-15.3,10.5-25,24.9-25c14.3,0,24.8,9.7,24.8,25C347.7,212,337.1,221.8,322.9,221.8z M322.9,212.5
	c8.4,0,14.8-5.9,14.8-15.8c0-9.9-6.4-15.7-14.8-15.7c-8.4,0-14.8,5.8-14.8,15.7C308,206.7,314.5,212.5,322.9,212.5z M375,221.8
	c-10.7,0-19-5.5-19-17.7v-31.7h10.1v30.3c0,7.4,3.9,10.2,8.9,10.2c5.1,0,9-2.8,9-10.2v-30.3h10.1V204
	C394.2,216.3,385.7,221.8,375,221.8z M421.9,221.8c-10.5,0-18.6-5.1-20-14.1l10.5-2.4c0.7,5.5,4.7,8.3,10,8.3c4.1,0,7.4-1.8,7.3-5.9
	c0-4.6-5.4-6-11.3-7.8c-7.1-2.3-14.8-4.9-14.8-13.9c0-9.1,7.4-14.2,17.2-14.2c8.5,0,17.2,3.5,19.2,12.8l-9.8,2.4
	c-0.9-4.9-4.2-7-8.8-7c-4.1,0-7.6,1.7-7.6,5.7c0,3.7,4.8,5,10.3,6.6c7.3,2.3,16,5.1,16,14.7C440.1,217.5,431.5,221.8,421.9,221.8
	L421.9,221.8z"/>
</svg>
